HIERARCHY
ROOT hip
{
	OFFSET 0.000000 0.000000 0.000000
	CHANNELS 6 Xposition Yposition Zposition Xrotation Zrotation Yrotation 
	JOINT abdomen
	{
		OFFSET 0.000000 3.422050 0.000000
		CHANNELS 3 Xrotation Zrotation Yrotation 
		JOINT chest
		{
			OFFSET 0.000000 8.486693 -0.684411
			CHANNELS 3 Xrotation Zrotation Yrotation 
			JOINT neck
			{
				OFFSET 0.000000 10.266162 -0.273764
				CHANNELS 3 Xrotation Zrotation Yrotation 
				JOINT head
				{
					OFFSET 0.000000 3.148285 0.000000
					CHANNELS 3 Xrotation Zrotation Yrotation 
					End Site
					{
						OFFSET 0.000000 3.148289 0.000000
					}
				}
			}
			JOINT lCollar
			{
				OFFSET 3.422053 6.707223 -0.821293
				CHANNELS 3 Yrotation Zrotation Xrotation 
				JOINT lShldr
				{
					OFFSET 3.285171 0.000000 0.000000
					CHANNELS 3 Zrotation Yrotation Xrotation 
					JOINT lForeArm
					{
						OFFSET 10.129278 0.000000 0.000000
						CHANNELS 3 Yrotation Zrotation Xrotation 
						JOINT lHand
						{
							OFFSET 8.486692 0.000000 0.000000
							CHANNELS 3 Zrotation Yrotation Xrotation 
							End Site
							{
								OFFSET 4.106464 0.000000 0.000000
							}
						}
					}
				}
			}
			JOINT rCollar
			{
				OFFSET -3.558935 6.707223 -0.821293
				CHANNELS 3 Yrotation Zrotation Xrotation 
				JOINT rShldr
				{
					OFFSET -3.148289 0.000000 0.000000
					CHANNELS 3 Zrotation Yrotation Xrotation 
					JOINT rForeArm
					{
						OFFSET -10.266159 0.000000 0.000000
						CHANNELS 3 Yrotation Zrotation Xrotation 
						JOINT rHand
						{
							OFFSET -8.349810 0.000000 0.000000
							CHANNELS 3 Zrotation Yrotation Xrotation 
							End Site
							{
								OFFSET -4.106464 0.000000 0.000000
							}
						}
					}
				}
			}
		}
	}
	JOINT lThigh
	{
		OFFSET 5.338403 -1.642589 1.368821
		CHANNELS 3 Xrotation Zrotation Yrotation 
		JOINT lShin
		{
			OFFSET -2.053232 -20.121670 0.000000
			CHANNELS 3 Xrotation Zrotation Yrotation 
			JOINT lFoot
			{
				OFFSET 0.000000 -19.300380 -1.231939
				CHANNELS 3 Xrotation Yrotation Zrotation 
				End Site
				{
					OFFSET 0.000000 -2.463878 4.653993
				}
			}
		}
	}
	JOINT rThigh
	{
		OFFSET -5.338403 -1.642589 1.368821
		CHANNELS 3 Xrotation Zrotation Yrotation 
		JOINT rShin
		{
			OFFSET 2.053232 -20.121670 0.000000
			CHANNELS 3 Xrotation Zrotation Yrotation 
			JOINT rFoot
			{
				OFFSET 0.000000 -19.300380 -1.231939
				CHANNELS 3 Xrotation Yrotation Zrotation 
				End Site
				{
					OFFSET 0.000000 -2.463878 4.653993
				}
			}
		}
	}
}
MOTION
Frames: 16
Frame Time: 0.033264
19.995884 43.687695 11.837742 20.023071 0.000000 0.000000 10.663015 -0.538587 -0.118754 -20.311367 -0.668435 -0.800219 18.153688 19.998878 -0.003595 8.871861 -10.002472 -0.002748 20.492277 -17.626072 22.438074 -59.990822 4.332917 -0.507047 6.934142 -6.948929 2.655740 -6.869549 -9.941900 5.810412 -23.186188 23.115892 22.334919 54.671700 -4.380068 0.031303 -6.696889 4.610486 2.641825 8.278658 8.763621 5.302309 -29.255947 6.652023 -7.764647 11.044849 -12.539416 1.032579 -2.915948 18.782352 -6.938709 -20.180775 -2.055863 -11.050488 -0.821005 5.126282 -0.080511 -1.020531 -18.381645 7.494636 
19.995884 43.687695 11.837742 19.547022 0.000000 0.000000 10.663015 -0.538587 -0.118754 -19.784950 -0.668404 -0.800298 17.538094 19.998878 -0.003580 8.193906 -10.002456 -0.002710 20.242962 -17.565392 22.160549 -60.183605 4.318947 -0.526981 6.934142 -6.948929 2.655740 -6.760386 -9.773177 5.705687 -22.905437 23.064293 22.023417 54.885082 -4.373583 0.006992 -6.696889 4.610486 2.641825 8.154838 8.598493 5.216042 -28.694164 6.626493 -7.781127 11.044849 -12.539416 1.032579 -2.915948 18.782352 -6.938709 -19.680559 -2.056813 -11.018151 -0.821005 5.126282 -0.080511 -1.020531 -18.381645 7.494636 
19.995884 43.687695 11.837742 19.071001 0.000000 0.000000 10.663015 -0.538587 -0.118754 -19.258591 -0.668372 -0.800377 16.922413 19.998880 -0.003564 7.515833 -10.002441 -0.002673 19.994053 -17.503569 21.883417 -60.376381 4.304911 -0.546867 6.934142 -6.948929 2.655740 -6.651593 -9.604259 5.601340 -22.625114 23.011288 21.712322 55.098457 -4.367008 -0.017295 -6.696889 4.610486 2.641825 8.031330 8.433186 5.130178 -28.132456 6.601127 -7.797856 11.044849 -12.539416 1.032579 -2.915948 18.782352 -6.938709 -19.180376 -2.058045 -10.985826 -0.821005 5.126282 -0.080511 -1.020531 -18.381645 7.494636 
19.995884 43.687695 11.837742 18.595030 0.000000 0.000000 10.663015 -0.538587 -0.118754 -18.732285 -0.668339 -0.800455 16.306677 19.998880 -0.003549 6.837688 -10.002428 -0.002636 19.745558 -17.440599 21.606674 -60.569126 4.290807 -0.566705 6.934142 -6.948929 2.655740 -6.543168 -9.435152 5.497374 -22.345236 22.956894 21.401659 55.311829 -4.360344 -0.041556 -6.696889 4.610486 2.641825 7.908123 8.267698 5.044710 -27.570854 6.575930 -7.814833 11.044849 -12.539416 1.032579 -2.915948 18.782352 -6.938709 -18.680252 -2.059559 -10.953514 -0.821005 5.126282 -0.080511 -1.020531 -18.381645 7.494636 
19.995884 43.687695 11.837742 18.119131 0.000000 0.000000 10.663015 -0.538587 -0.118754 -18.206076 -0.668305 -0.800534 15.690928 19.998882 -0.003533 6.159519 -10.002410 -0.002599 19.497486 -17.376492 21.330334 -60.761875 4.276638 -0.586494 6.934142 -6.948929 2.655740 -6.435109 -9.265855 5.393785 -22.065817 22.901110 21.091433 55.525188 -4.353590 -0.065792 -6.696889 4.610486 2.641825 7.785222 8.102034 4.959639 -27.009378 6.550902 -7.832051 11.044849 -12.539416 1.032579 -2.915948 18.782352 -6.938709 -18.180208 -2.061355 -10.921225 -0.821005 5.126282 -0.080511 -1.020531 -18.381645 7.494636 
19.995884 43.687695 11.837742 17.643309 0.000000 0.000000 10.663015 -0.538587 -0.118754 -17.679972 -0.668271 -0.800612 15.075192 19.998884 -0.003518 5.481374 -10.002394 -0.002562 19.249847 -17.311249 21.054403 -60.954617 4.262404 -0.606235 6.934142 -6.948929 2.655740 -6.327419 -9.096374 5.290575 -21.786863 22.843931 20.781658 55.738522 -4.346744 -0.090000 -6.696889 4.610486 2.641825 7.662625 7.936197 4.874966 -26.448061 6.526051 -7.849511 11.044849 -12.539416 1.032579 -2.915948 18.782352 -6.938709 -17.680258 -2.063431 -10.888956 -0.821005 5.126282 -0.080511 -1.020531 -18.381645 7.494636 
19.995884 43.687695 11.837742 17.167585 0.000000 0.000000 10.663015 -0.538587 -0.118754 -17.154005 -0.668236 -0.800689 14.459509 19.998882 -0.003503 4.803300 -10.002375 -0.002526 19.002645 -17.244871 20.778894 -61.147343 4.248103 -0.625926 6.934142 -6.948929 2.655740 -6.220090 -8.926708 5.187739 -21.508404 22.785379 20.472359 55.951855 -4.339810 -0.114182 -6.696889 4.610486 2.641825 7.540327 7.770186 4.790688 -25.886930 6.501379 -7.867211 11.044849 -12.539416 1.032579 -2.915948 18.782352 -6.938709 -17.180424 -2.065788 -10.856714 -0.821005 5.126282 -0.080511 -1.020531 -18.381645 7.494636 
19.995884 43.687695 11.837742 16.691978 0.000000 0.000000 10.663015 -0.538587 -0.118754 -16.628185 -0.668200 -0.800766 13.843915 19.998888 -0.003487 4.125342 -10.002357 -0.002489 18.755905 -17.177372 20.503820 -61.340038 4.233737 -0.645568 6.934142 -6.948929 2.655740 -6.113125 -8.756860 5.085277 -21.230436 22.725439 20.163532 56.165161 -4.332787 -0.138336 -6.696889 4.610486 2.641825 7.418332 7.604009 4.706806 -25.326010 6.476888 -7.885145 11.044849 -12.539416 1.032579 -2.915948 18.782352 -6.938709 -16.680721 -2.068425 -10.824499 -0.821005 5.126282 -0.080511 -1.020532 -18.381645 7.494637 
19.995884 43.687695 11.837742 16.216499 0.000000 0.000000 10.663015 -0.538587 -0.118754 -16.102552 -0.668164 -0.800843 13.228446 19.998888 -0.003472 3.447553 -10.002339 -0.002453 18.509623 -17.108751 20.229187 -61.532722 4.219306 -0.665160 6.934142 -6.948929 2.655740 -6.006522 -8.586835 4.983188 -20.952984 22.664131 19.855204 56.378464 -4.325674 -0.162463 -6.696889 4.610486 2.641825 7.296634 7.437660 4.623316 -24.765320 6.452579 -7.903310 11.044849 -12.539416 1.032579 -2.915948 18.782352 -6.938709 -16.181177 -2.071342 -10.792323 -0.821005 5.126282 -0.080511 -1.020532 -18.381645 7.494637 
19.995884 43.687695 11.837742 15.741177 0.000000 0.000000 10.663015 -0.538587 -0.118754 -15.577117 -0.668127 -0.800920 12.613137 19.998894 -0.003456 2.769979 -10.002322 -0.002417 18.263815 -17.039015 19.955002 -61.725395 4.204811 -0.684702 6.934142 -6.948929 2.655740 -5.900279 -8.416633 4.881471 -20.676062 22.601463 19.547388 56.591732 -4.318472 -0.186560 -6.696889 4.610486 2.641825 7.175234 7.271152 4.540220 -24.204899 6.428461 -7.921706 11.044849 -12.539416 1.032579 -2.915948 18.782352 -6.938709 -15.681806 -2.074538 -10.760182 -0.821005 5.126282 -0.080511 -1.020532 -18.381645 7.494637 
19.995884 43.687695 11.837742 15.266007 0.000000 0.000000 10.663015 -0.538587 -0.118754 -15.051900 -0.668089 -0.800996 11.998021 19.998892 -0.003441 2.092664 -10.002301 -0.002382 18.018488 -16.968166 19.681278 -61.918041 4.190249 -0.704193 6.934142 -6.948929 2.655740 -5.794396 -8.246258 4.780126 -20.399679 22.537428 19.240093 56.804985 -4.311181 -0.210630 -6.696889 4.610486 2.641825 7.054133 7.104479 4.457516 -23.644768 6.404536 -7.940330 11.044849 -12.539416 1.032579 -2.915948 18.782352 -6.938709 -15.182625 -2.078012 -10.728084 -0.821005 5.126282 -0.080511 -1.020531 -18.381643 7.494635 
19.995884 43.687695 11.837742 14.791019 0.000000 0.000000 10.663015 -0.538587 -0.118754 -14.526930 -0.668051 -0.801072 11.383142 19.998898 -0.003426 1.415657 -10.002282 -0.002346 17.773653 -16.896210 19.408026 -62.110668 4.175624 -0.723634 6.934142 -6.948929 2.655740 -5.688871 -8.075712 4.679148 -20.123857 22.472046 18.933344 57.018234 -4.303802 -0.234669 -6.696889 4.610486 2.641825 6.933326 6.937647 4.375204 -23.084949 6.380802 -7.959174 11.044849 -12.539416 1.032579 -2.915948 18.782352 -6.938709 -14.683657 -2.081765 -10.696031 -0.821005 5.126282 -0.080511 -1.020531 -18.381643 7.494635 
19.995884 43.687695 11.837742 14.316234 0.000000 0.000000 10.663015 -0.538587 -0.118754 -14.002222 -0.668012 -0.801147 10.768524 19.998898 -0.003411 0.739005 -10.002262 -0.002311 17.529316 -16.823151 19.135250 -62.303265 4.160935 -0.743023 6.934142 -6.948929 2.655740 -5.583704 -7.904996 4.578540 -19.848598 22.405308 18.627140 57.231441 -4.296334 -0.258678 -6.696889 4.610486 2.641825 6.812812 6.770657 4.293281 -22.525480 6.357270 -7.978242 11.044849 -12.539416 1.032579 -2.915948 18.782352 -6.938709 -14.184919 -2.085794 -10.664025 -0.821005 5.126282 -0.080511 -1.020531 -18.381645 7.494636 
19.995884 43.687695 11.837742 13.841657 0.000000 0.000000 10.663015 -0.538587 -0.118754 -13.477801 -0.667972 -0.801222 10.154206 19.998903 -0.003395 0.062754 -10.002244 -0.002276 17.285488 -16.748993 18.862961 -62.495861 4.146182 -0.762362 6.934142 -6.948929 2.655740 -5.478891 -7.734115 4.478298 -19.573927 22.337236 18.321507 57.444630 -4.288777 -0.282658 -6.696889 4.610486 2.641825 6.692593 6.603513 4.211748 -21.966373 6.333935 -7.997525 11.044849 -12.539416 1.032579 -2.915948 18.782352 -6.938709 -13.686432 -2.090099 -10.632074 -0.821005 5.126282 -0.080511 -1.020531 -18.381645 7.494636 
19.995884 43.687695 11.837742 13.367310 0.000000 0.000000 10.663015 -0.538587 -0.118754 -12.953688 -0.667932 -0.801297 9.540225 19.998901 -0.003380 -0.613048 -10.002224 -0.002242 17.042183 -16.673750 18.591173 -62.688412 4.131365 -0.781648 6.934142 -6.948929 2.655740 -5.374432 -7.563069 4.378422 -19.299850 22.267822 18.016447 57.657803 -4.281134 -0.306606 -6.696889 4.610486 2.641825 6.572663 6.436215 4.130603 -21.407663 6.310804 -8.017022 11.044849 -12.539416 1.032579 -2.915948 18.782352 -6.938709 -13.188212 -2.094680 -10.600177 -0.821005 5.126282 -0.080511 -1.020531 -18.381645 7.494636 
19.995884 43.687695 11.837742 12.893206 0.000000 0.000000 10.663015 -0.538587 -0.118754 -12.429910 -0.667891 -0.801371 8.926617 19.998907 -0.003365 -1.288354 -10.002203 -0.002207 16.799402 -16.597418 18.319889 -62.880955 4.116486 -0.800883 6.934142 -6.948929 2.655740 -5.270327 -7.391864 4.278911 -19.026382 22.197077 17.711981 57.870930 -4.273401 -0.330523 -6.696889 4.610486 2.641825 6.453026 6.268769 4.049845 -20.849379 6.287881 -8.036731 11.044849 -12.539416 1.032579 -2.915948 18.782352 -6.938709 -12.690281 -2.099534 -10.568337 -0.821005 5.126282 -0.080511 -1.020531 -18.381645 7.494636 
